<?xml version="1.0" encoding="UTF-8"?>
<svg version="1.1" viewBox="0 0 2048 2048" width="512" height="512" xmlns="http://www.w3.org/2000/svg">
<path transform="translate(824,55)" d="m0 0h399l16 3 16 6 11 6 12 9 12 12 9 13 8 17 4 15 5 45 14 140 6 61v25l-4 18-8 18-7 11-8 10-8 7-12 9-17 8-13 4-11 2h-66l-1 60h121l28 1 33 3 24 4 25 6 16 5 25 10 23 12 19 13 13 11 12 11 10 11 11 16 12 21 8 17 9 24 7 27 3 18 2 21v29l-5 52-1 24v102l2 45 4 55 6 59 7 56 10 66 10 57 15 74 8 34 8 4 19 9 19 12 11 9 11 10 13 13 10 13 10 15 11 21 8 22 6 24 3 20 1 12v36l-2 22-5 30-9 40-7 24-7 19-9 20-13 25-10 16-12 17-13 16-4 5h-2l-2 4-16 16-11 9-15 12-15 10-19 11-25 12-24 9-29 8-27 5-23 3-27 2h-836l-38-3-30-5-25-6-27-9-25-11-23-12-18-12-12-9-14-12-15-14-13-14-9-11-14-19-15-25-12-23-13-32-8-27-9-40-5-32-2-21v-32l2-21 5-26 10-30 8-16 6-11 11-16 11-13 11-12 11-9 15-11 17-10 17-8 7-2 5-25 11-52 12-63 9-55 8-57 7-58 5-56 3-43 2-48v-88l-2-40-4-43v-24l2-22 5-26 7-25 8-20 9-19 10-17 12-17 11-12 12-12 17-13 14-9 18-10 23-10 19-6 23-6 30-5 31-3 36-1h113v-60h-63l-17-3-17-6-14-8-13-11-10-11-9-14-7-16-4-17-1-16 3-35 20-200 3-23 5-16 8-16 8-11 10-11 13-10 15-8 16-5zm7 56-10 2-10 5-7 6-6 8-5 12-2 12-12 120-8 79-3 29v17l4 12 6 9 5 5 5 4 8 4 6 2 8 1h428l11-2 14-7 9-9 6-12 2-11-1-19-20-200-3-28-3-12-6-10-6-7-10-6-13-4zm92 384v60h201l1-1v-59zm-149 117-1 38v316h500l1-2v-352zm557 1v905h61l7-4 11-10 17-13 18-13 18-11 22-12 20-9 20-7 18-5 18-3 16-2-1-9-10-48-11-57-10-60-9-63-8-70-5-60-3-51-1-30v-77l2-47 3-37 1-26-2-23-5-25-8-24-7-16-10-18-9-13-15-15-18-13-22-12-21-8-20-6-26-5-26-3zm-621 0-31 4-23 5-20 6-21 9-18 10-14 10-15 14-7 8-13 21-9 19-7 20-4 14-4 23-1 13v21l4 50 2 50v66l-2 55-3 44-3 37-4 39-8 64-8 54-8 47-8 43-11 54-3 12v3l28 4 20 5 21 7 24 11 19 10 22 14 15 11 13 10 14 12 6 5 3 1h61v-905zm64 409-1 14v481h501v-495zm-315 463-20 3-17 6-15 8-12 8-10 9-4 3v2l-4 2-11 14-9 14-9 19-7 23-3 19-1 10v34l4 31 10 49 6 21 11 27 13 25 12 18 10 13 12 14 12 12 11 9 14 11 18 11 21 11 23 9 19 6 23 5 37 5 11 1h9l1-2v-377l-5-5-10-9-17-13-18-12-17-10-16-8-20-8-13-4-16-3-12-1zm1114 1-15 2-19 5-21 8-22 11-22 14-11 8-13 10-11 9-5 5v379l22-1 32-4 27-6 30-10 20-9 22-12 18-13 13-11 8-7 11-11 9-11 12-16 7-11 11-19 11-25 8-24 5-22 7-33 4-33v-34l-3-23-4-17-6-17-11-21-8-11-11-13-10-9-17-12-21-10-18-5-8-1zm-902 88-1 57v306h707v-363z"/>
</svg>
